<svg width="800" height="600" viewBox="0 0 800 600" fill="none" xmlns="http://www.w3.org/2000/svg">
  <!-- Background -->
  <rect width="800" height="600" rx="12" fill="white"/>
  
  <!-- Header -->
  <rect width="800" height="60" rx="8" fill="#F5F3FF"/>
  <text x="20" y="38" font-family="Arial" font-size="18" font-weight="bold" fill="#7C3AED">Client Management</text>
  
  <!-- Search Bar -->
  <rect x="40" y="80" width="720" height="50" rx="8" fill="#F9FAFB" stroke="#E5E7EB"/>
  <text x="70" y="110" font-family="Arial" font-size="16" fill="#6B7280">Search clients...</text>
  <circle cx="50" cy="105" r="15" fill="#F5F3FF"/>
  <path d="M55 105L60 110" stroke="#7C3AED" stroke-width="2" stroke-linecap="round"/>
  <circle cx="50" cy="105" r="6" stroke="#7C3AED" stroke-width="2"/>
  
  <!-- Client Cards -->
  <!-- Row 1 -->
  <rect x="40" y="150" width="230" height="160" rx="8" fill="#F9FAFB" stroke="#E5E7EB"/>
  <circle cx="70" cy="185" r="20" fill="#F5F3FF"/>
  <text x="70" y="191" font-family="Arial" font-size="18" text-anchor="middle" fill="#7C3AED">JD</text>
  <text x="100" y="180" font-family="Arial" font-size="16" font-weight="bold" fill="#111827">John Doe</text>
  <text x="100" y="205" font-family="Arial" font-size="14" fill="#6B7280">john@example.com</text>
  <text x="100" y="225" font-family="Arial" font-size="14" fill="#6B7280">Quotes: 3</text>
  <rect x="50" y="245" width="100" height="30" rx="6" fill="#7C3AED"/>
  <text x="100" y="265" font-family="Arial" font-size="14" text-anchor="middle" fill="white">View Details</text>
  <rect x="160" y="245" width="100" height="30" rx="6" fill="white" stroke="#7C3AED"/>
  <text x="210" y="265" font-family="Arial" font-size="14" text-anchor="middle" fill="#7C3AED">Edit</text>
  
  <rect x="285" y="150" width="230" height="160" rx="8" fill="#F9FAFB" stroke="#E5E7EB"/>
  <circle cx="315" cy="185" r="20" fill="#F5F3FF"/>
  <text x="315" y="191" font-family="Arial" font-size="18" text-anchor="middle" fill="#7C3AED">JS</text>
  <text x="345" y="180" font-family="Arial" font-size="16" font-weight="bold" fill="#111827">Jane Smith</text>
  <text x="345" y="205" font-family="Arial" font-size="14" fill="#6B7280">jane@example.com</text>
  <text x="345" y="225" font-family="Arial" font-size="14" fill="#6B7280">Quotes: 2</text>
  <rect x="295" y="245" width="100" height="30" rx="6" fill="#7C3AED"/>
  <text x="345" y="265" font-family="Arial" font-size="14" text-anchor="middle" fill="white">View Details</text>
  <rect x="405" y="245" width="100" height="30" rx="6" fill="white" stroke="#7C3AED"/>
  <text x="455" y="265" font-family="Arial" font-size="14" text-anchor="middle" fill="#7C3AED">Edit</text>
  
  <rect x="530" y="150" width="230" height="160" rx="8" fill="#F9FAFB" stroke="#E5E7EB"/>
  <circle cx="560" cy="185" r="20" fill="#F5F3FF"/>
  <text x="560" y="191" font-family="Arial" font-size="18" text-anchor="middle" fill="#7C3AED">RJ</text>
  <text x="590" y="180" font-family="Arial" font-size="16" font-weight="bold" fill="#111827">Robert Johnson</text>
  <text x="590" y="205" font-family="Arial" font-size="14" fill="#6B7280">robert@example.com</text>
  <text x="590" y="225" font-family="Arial" font-size="14" fill="#6B7280">Quotes: 5</text>
  <rect x="540" y="245" width="100" height="30" rx="6" fill="#7C3AED"/>
  <text x="590" y="265" font-family="Arial" font-size="14" text-anchor="middle" fill="white">View Details</text>
  <rect x="650" y="245" width="100" height="30" rx="6" fill="white" stroke="#7C3AED"/>
  <text x="700" y="265" font-family="Arial" font-size="14" text-anchor="middle" fill="#7C3AED">Edit</text>
  
  <!-- Row 2 -->
  <rect x="40" y="330" width="230" height="160" rx="8" fill="#F9FAFB" stroke="#E5E7EB"/>
  <circle cx="70" cy="365" r="20" fill="#F5F3FF"/>
  <text x="70" y="371" font-family="Arial" font-size="18" text-anchor="middle" fill="#7C3AED">MB</text>
  <text x="100" y="360" font-family="Arial" font-size="16" font-weight="bold" fill="#111827">Mary Brown</text>
  <text x="100" y="385" font-family="Arial" font-size="14" fill="#6B7280">mary@example.com</text>
  <text x="100" y="405" font-family="Arial" font-size="14" fill="#6B7280">Quotes: 1</text>
  <rect x="50" y="425" width="100" height="30" rx="6" fill="#7C3AED"/>
  <text x="100" y="445" font-family="Arial" font-size="14" text-anchor="middle" fill="white">View Details</text>
  <rect x="160" y="425" width="100" height="30" rx="6" fill="white" stroke="#7C3AED"/>
  <text x="210" y="445" font-family="Arial" font-size="14" text-anchor="middle" fill="#7C3AED">Edit</text>
  
  <rect x="285" y="330" width="230" height="160" rx="8" fill="#F9FAFB" stroke="#E5E7EB"/>
  <circle cx="315" cy="365" r="20" fill="#F5F3FF"/>
  <text x="315" y="371" font-family="Arial" font-size="18" text-anchor="middle" fill="#7C3AED">DW</text>
  <text x="345" y="360" font-family="Arial" font-size="16" font-weight="bold" fill="#111827">David Wilson</text>
  <text x="345" y="385" font-family="Arial" font-size="14" fill="#6B7280">david@example.com</text>
  <text x="345" y="405" font-family="Arial" font-size="14" fill="#6B7280">Quotes: 4</text>
  <rect x="295" y="425" width="100" height="30" rx="6" fill="#7C3AED"/>
  <text x="345" y="445" font-family="Arial" font-size="14" text-anchor="middle" fill="white">View Details</text>
  <rect x="405" y="425" width="100" height="30" rx="6" fill="white" stroke="#7C3AED"/>
  <text x="455" y="445" font-family="Arial" font-size="14" text-anchor="middle" fill="#7C3AED">Edit</text>
  
  <rect x="530" y="330" width="230" height="160" rx="8" fill="#F9FAFB" stroke="#E5E7EB"/>
  <circle cx="560" cy="365" r="20" fill="#F5F3FF"/>
  <text x="560" y="371" font-family="Arial" font-size="18" text-anchor="middle" fill="#7C3AED">ST</text>
  <text x="590" y="360" font-family="Arial" font-size="16" font-weight="bold" fill="#111827">Sarah Taylor</text>
  <text x="590" y="385" font-family="Arial" font-size="14" fill="#6B7280">sarah@example.com</text>
  <text x="590" y="405" font-family="Arial" font-size="14" fill="#6B7280">Quotes: 2</text>
  <rect x="540" y="425" width="100" height="30" rx="6" fill="#7C3AED"/>
  <text x="590" y="445" font-family="Arial" font-size="14" text-anchor="middle" fill="white">View Details</text>
  <rect x="650" y="425" width="100" height="30" rx="6" fill="white" stroke="#7C3AED"/>
  <text x="700" y="445" font-family="Arial" font-size="14" text-anchor="middle" fill="#7C3AED">Edit</text>
  
  <!-- Pagination -->
  <rect x="300" y="520" width="200" height="40" rx="8" fill="#F9FAFB"/>
  <circle cx="340" cy="540" r="15" fill="white" stroke="#E5E7EB"/>
  <text x="340" y="546" font-family="Arial" font-size="14" text-anchor="middle" fill="#6B7280">&lt;</text>
  <circle cx="380" cy="540" r="15" fill="#7C3AED"/>
  <text x="380" y="546" font-family="Arial" font-size="14" text-anchor="middle" fill="white">1</text>
  <circle cx="420" cy="540" r="15" fill="white" stroke="#E5E7EB"/>
  <text x="420" y="546" font-family="Arial" font-size="14" text-anchor="middle" fill="#6B7280">2</text>
  <circle cx="460" cy="540" r="15" fill="white" stroke="#E5E7EB"/>
  <text x="460" y="546" font-family="Arial" font-size="14" text-anchor="middle" fill="#6B7280">&gt;</text>
</svg> 