<svg width="800" height="600" viewBox="0 0 800 600" fill="none" xmlns="http://www.w3.org/2000/svg">
  <!-- Background -->
  <rect width="800" height="600" rx="12" fill="#F8FAFC"/>
  
  <!-- Top Navigation -->
  <rect x="24" y="24" width="752" height="64" rx="8" fill="#E2E8F0"/>
  <rect x="48" y="44" width="120" height="24" rx="4" fill="#CBD5E1"/>
  <rect x="600" y="44" width="80" height="24" rx="4" fill="#94A3B8"/>
  <rect x="696" y="44" width="56" height="24" rx="4" fill="#94A3B8"/>
  
  <!-- Sidebar -->
  <rect x="24" y="104" width="200" height="472" rx="8" fill="#E2E8F0"/>
  <rect x="48" y="128" width="152" height="32" rx="4" fill="#CBD5E1"/>
  <rect x="48" y="176" width="152" height="32" rx="4" fill="#CBD5E1"/>
  <rect x="48" y="224" width="152" height="32" rx="4" fill="#CBD5E1"/>
  <rect x="48" y="272" width="152" height="32" rx="4" fill="#CBD5E1"/>
  
  <!-- Main Content -->
  <rect x="248" y="104" width="528" height="472" rx="8" fill="#E2E8F0"/>
  
  <!-- Stats Cards -->
  <rect x="272" y="128" width="152" height="88" rx="8" fill="#CBD5E1"/>
  <rect x="436" y="128" width="152" height="88" rx="8" fill="#CBD5E1"/>
  <rect x="600" y="128" width="152" height="88" rx="8" fill="#CBD5E1"/>
  
  <!-- Table -->
  <rect x="272" y="240" width="480" height="312" rx="8" fill="#CBD5E1"/>
  <rect x="296" y="264" width="432" height="40" rx="4" fill="#94A3B8"/>
  <rect x="296" y="320" width="432" height="32" rx="4" fill="#E2E8F0"/>
  <rect x="296" y="368" width="432" height="32" rx="4" fill="#E2E8F0"/>
  <rect x="296" y="416" width="432" height="32" rx="4" fill="#E2E8F0"/>
  <rect x="296" y="464" width="432" height="32" rx="4" fill="#E2E8F0"/>
  <rect x="296" y="512" width="432" height="32" rx="4" fill="#E2E8F0"/>
</svg> 